<svg width="65" height="65" viewBox="0 0 65 65" fill="none" xmlns="http://www.w3.org/2000/svg">
<g clip-path="url(#clip0_6_62)">
<path d="M59.0332 3.80853H32.373C29.2152 3.80853 26.6602 6.48699 26.6602 9.64838V15.8109C26.0603 15.5996 25.4206 15.4896 24.763 15.4886C24.7606 15.4886 24.7583 15.4882 24.7559 15.4882H17.1387H9.52148C4.27134 15.4882 0 19.7596 0 25.0097V40.2441C0 42.7297 1.59618 44.8484 3.81685 45.6322C3.81228 45.74 3.80859 45.848 3.80859 45.957C3.80859 47.7398 4.42597 49.3801 5.45581 50.6794C2.23399 52.2073 0 55.4908 0 59.287V63.0956C0 64.1473 0.852617 64.9999 1.9043 64.9999C2.94684 64.9999 57.8872 64.9999 59.0332 64.9999C60.0849 64.9999 60.9375 64.1473 60.9375 63.0956V59.287C60.9375 55.4908 58.7035 52.2073 55.4817 50.6794C56.5115 49.3801 57.1289 47.7398 57.1289 45.957C57.1289 41.7569 53.7118 38.3398 49.5117 38.3398C45.3116 38.3398 41.8945 41.7569 41.8945 45.957C41.8945 47.7398 42.5119 49.3801 43.5417 50.6794C42.1351 51.3465 40.9165 52.3475 39.9902 53.5808C39.064 52.3475 37.8454 51.3465 36.4387 50.6794C37.4686 49.3801 38.0859 47.7398 38.0859 45.957C38.0859 41.7569 34.6689 38.3398 30.4688 38.3398C29.0818 38.3398 27.7815 38.7142 26.6602 39.3645V34.3564L27.6188 35.7942C28.5713 37.2259 30.0994 38.1436 31.8024 38.3111C31.9894 38.3303 32.176 38.3397 32.373 38.3397C33.8766 38.3397 35.3487 37.7296 36.4123 36.666L38.5474 34.5312H59.0332C62.2676 34.5312 65 31.9151 65 28.8183V9.64838C65 6.53739 62.2117 3.80853 59.0332 3.80853ZM49.5117 42.1484C51.6118 42.1484 53.3203 43.8569 53.3203 45.957C53.3203 48.057 51.6118 49.7656 49.5117 49.7656C47.4117 49.7656 45.7031 48.057 45.7031 45.957C45.7031 43.8569 47.4117 42.1484 49.5117 42.1484ZM41.8945 59.287C41.8945 56.137 44.4573 53.5742 47.6074 53.5742H51.416C54.5661 53.5742 57.1289 56.137 57.1289 59.287V61.1913H41.8945V59.287ZM19.043 61.1913H3.80859V59.287C3.80859 56.137 6.3714 53.5742 9.52148 53.5742H13.3301C16.4802 53.5742 19.043 56.137 19.043 59.287V61.1913ZM7.61719 45.957C7.61719 43.8569 9.32572 42.1484 11.4258 42.1484C13.5258 42.1484 15.2344 43.8569 15.2344 45.957C15.2344 48.057 13.5258 49.7656 11.4258 49.7656C9.32572 49.7656 7.61719 48.057 7.61719 45.957ZM38.0859 59.287V61.1913H22.8516V59.287C22.8516 56.137 25.4144 53.5742 28.5645 53.5742H32.373C35.5231 53.5742 38.0859 56.137 38.0859 59.287ZM30.4688 42.1484C32.5688 42.1484 34.2773 43.8569 34.2773 45.957C34.2773 48.057 32.5688 49.7656 30.4688 49.7656C28.3687 49.7656 26.6602 48.057 26.6602 45.957C26.6602 43.8569 28.3687 42.1484 30.4688 42.1484ZM41.3364 26.3559L36.4124 31.28C36.4122 31.2802 36.4119 31.2804 36.4118 31.2807L33.7194 33.9731C33.3185 34.3741 32.7443 34.579 32.1839 34.5217C31.6146 34.4657 31.1064 34.1605 30.7888 33.6831L26.3405 27.0106C26.3399 27.0097 26.3392 27.0088 26.3386 27.0079C25.3136 25.4808 22.8517 26.1475 22.8517 28.0669V48.8802V51.6749C22.1309 52.2173 21.4891 52.8594 20.9474 53.5806C20.0211 52.3474 18.8025 51.3464 17.3959 50.6792C18.4256 49.3801 19.043 47.7398 19.043 45.957C19.043 41.7569 15.6259 38.3398 11.4258 38.3398V25.0097C11.4258 23.958 10.5732 23.1054 9.52148 23.1054C8.4698 23.1054 7.61719 23.958 7.61719 25.0097V39.3645C6.52057 40.0006 5.59584 40.9008 4.93264 41.9793C4.27108 41.6806 3.80859 41.016 3.80859 40.2441V25.0097C3.80859 21.8596 6.3714 19.2968 9.52148 19.2968H24.7559C24.7675 19.2968 24.779 19.2953 24.7906 19.295C25.9608 19.317 26.3491 20.1581 26.9835 21.1096C26.9848 21.1114 26.9859 21.1133 26.9871 21.115L31.3799 27.7043C31.6964 28.179 32.2089 28.4867 32.7765 28.5429C33.3444 28.5993 33.9071 28.3981 34.3106 27.9948L38.6439 23.6632C39.3886 22.9187 40.5916 22.9187 41.3364 23.6632C42.0812 24.4085 42.081 25.6112 41.3364 26.3559ZM61.1914 28.8183C61.1914 29.7971 60.1425 30.7226 59.0332 30.7226H42.356L44.0296 29.049C46.2627 26.816 46.263 23.2035 44.0296 20.9703C41.7968 18.7376 38.1846 18.7368 35.9512 20.9701L33.2607 23.6594L30.4688 19.4715V9.64838C30.4688 8.56636 31.3586 7.61713 32.373 7.61713H59.0332C60.1223 7.61713 61.1914 8.62323 61.1914 9.64838V28.8183Z" fill="white"/>
<path d="M17.1387 -6.10352e-05C12.9386 -6.10352e-05 9.52148 3.41701 9.52148 7.61713C9.52148 11.8836 13.0098 15.4882 17.1387 15.4882C21.2676 15.4882 24.7559 11.8836 24.7559 7.61713C24.7559 3.41701 21.3388 -6.10352e-05 17.1387 -6.10352e-05ZM17.1387 11.6796C15.1098 11.6796 13.3301 9.7813 13.3301 7.61713C13.3301 5.51707 15.0386 3.80853 17.1387 3.80853C19.2387 3.80853 20.9473 5.51707 20.9473 7.61713C20.9473 9.7813 19.1675 11.6796 17.1387 11.6796Z" fill="white"/>
</g>
<defs>
<clipPath id="clip0_6_62">
<rect width="65" height="65" fill="white"/>
</clipPath>
</defs>
</svg>
