<svg width="65" height="65" viewBox="0 0 65 65" fill="none" xmlns="http://www.w3.org/2000/svg">
<g clip-path="url(#clip0_6_32)">
<path d="M54.4271 8.02865C49.2496 2.85125 42.3658 -0.00012207 35.044 -0.00012207C27.7219 -0.00012207 20.8382 2.85125 15.6608 8.02865C10.5369 13.1526 7.69121 19.9473 7.63306 27.1849L2.64482 37.1613C2.42189 37.6072 2.57969 38.1496 3.0074 38.406L7.63217 41.1809V55.905C7.63217 56.4318 8.05924 56.859 8.58623 56.859H17.8084V64.046C17.8084 64.5728 18.2354 65 18.7624 65C19.2894 65 19.7165 64.5728 19.7165 64.046V55.905C19.7165 55.3781 19.2894 54.9509 18.7624 54.9509H9.54003V40.6408C9.54003 40.3057 9.3642 39.9951 9.07677 39.8227L4.74628 37.2243L9.43922 27.8384C9.50549 27.7059 9.54003 27.56 9.54003 27.4117C9.54003 13.3489 20.981 1.90786 35.0439 1.90786C49.1068 1.90786 60.5478 13.3489 60.5478 27.4117C60.5478 35.3142 56.9723 42.6415 50.7381 47.5155C50.5068 47.6963 50.3716 47.9736 50.3716 48.2672V64.0458C50.3716 64.5727 50.7987 64.9999 51.3256 64.9999C51.8526 64.9999 52.2797 64.5727 52.2797 64.0458V48.7274C58.7533 43.4911 62.4559 35.7492 62.4559 27.4119C62.4559 20.0898 59.6046 13.2061 54.4271 8.02865Z" fill="white"/>
<path d="M53.018 25.7197C52.6326 25.3343 43.483 16.2817 35.0439 16.2817C25.5658 16.2817 17.3754 25.3735 17.0315 25.7604C16.7102 26.122 16.7102 26.6666 17.0315 27.0281C17.3754 27.415 25.5659 36.5068 35.044 36.5068C38.1144 36.5068 41.3726 35.5448 44.7284 33.6478C45.1871 33.3885 45.3488 32.8065 45.0896 32.3478C44.8301 31.8891 44.2482 31.7274 43.7896 31.9867C40.7236 33.72 37.7814 34.5987 35.044 34.5987C27.8048 34.5987 21.0741 28.4186 19.0635 26.3937C21.0719 24.3676 27.7922 18.1897 35.044 18.1897C41.4667 18.1897 48.7667 24.3918 50.9912 26.4295C50.3096 27.1166 49.1151 28.2523 47.5662 29.4546C47.15 29.7777 47.0743 30.377 47.3974 30.7932C47.7207 31.2095 48.3201 31.2851 48.736 30.962C51.3623 28.9235 52.9883 27.1046 53.0562 27.0282C53.3922 26.6505 53.3753 26.0768 53.018 25.7197Z" fill="white"/>
<path d="M35.0441 19.3345C31.1513 19.3345 27.9844 22.5014 27.9844 26.3942C27.9844 30.287 31.1513 33.4539 35.0441 33.4539C38.9369 33.4539 42.1038 30.287 42.1038 26.3942C42.1038 22.5014 38.9369 19.3345 35.0441 19.3345ZM35.0441 31.5458C32.2034 31.5458 29.8925 29.2348 29.8925 26.3942C29.8925 23.5535 32.2035 21.2426 35.0441 21.2426C37.8848 21.2426 40.1957 23.5536 40.1957 26.3942C40.1957 29.2349 37.8847 31.5458 35.0441 31.5458Z" fill="white"/>
<path d="M36.0617 22.3873C34.4135 22.3873 33.0725 23.7283 33.0725 25.3765C33.0725 27.0248 34.4135 28.3658 36.0617 28.3658C37.71 28.3658 39.051 27.0248 39.051 25.3765C39.051 23.7283 37.7101 22.3873 36.0617 22.3873ZM36.0617 26.4578C35.4656 26.4578 34.9805 25.9728 34.9805 25.3765C34.9805 24.7802 35.4654 24.2953 36.0617 24.2953C36.6579 24.2953 37.143 24.7802 37.143 25.3765C37.143 25.9728 36.658 26.4578 36.0617 26.4578Z" fill="white"/>
<path d="M35.0441 10.1761C34.5172 10.1761 34.0901 10.6033 34.0901 11.1301V14.183C34.0901 14.7098 34.5172 15.137 35.0441 15.137C35.5711 15.137 35.9982 14.7098 35.9982 14.183V11.13C35.9981 10.6031 35.5711 10.1761 35.0441 10.1761Z" fill="white"/>
<path d="M54.0357 18.5964C53.6629 18.2237 53.059 18.2237 52.6864 18.5964L50.6512 20.6315C50.304 20.9788 50.2808 21.5526 50.6006 21.926C50.9573 22.3426 51.6124 22.3686 52.0005 21.9807L54.0357 19.9455C54.4083 19.5729 54.4083 18.9688 54.0357 18.5964Z" fill="white"/>
<path d="M46.7671 12.3715C46.3288 12.0792 45.7363 12.1975 45.4442 12.636L43.409 15.6889C42.9954 16.3092 43.4517 17.1722 44.2018 17.1722C44.5102 17.1722 44.8126 17.023 44.9964 16.7472L47.0316 13.6943C47.324 13.2561 47.2054 12.6637 46.7671 12.3715Z" fill="white"/>
<path d="M19.4371 20.6315L17.4019 18.5964C17.0292 18.2237 16.4253 18.2237 16.0526 18.5964C15.68 18.969 15.68 19.573 16.0526 19.9455L18.0878 21.9807C18.2741 22.167 18.5183 22.2601 18.7623 22.2601C19.5965 22.2601 20.0248 21.2192 19.4371 20.6315Z" fill="white"/>
<path d="M26.6792 15.6889L24.644 12.636C24.3518 12.1977 23.7596 12.0792 23.3212 12.3715C22.8828 12.6637 22.7642 13.2561 23.0566 13.6943L25.0918 16.7472C25.2758 17.0229 25.5782 17.1722 25.8864 17.1722C26.6364 17.1722 27.0928 16.3092 26.6792 15.6889Z" fill="white"/>
</g>
<defs>
<clipPath id="clip0_6_32">
<rect width="65" height="65" fill="white"/>
</clipPath>
</defs>
</svg>
