<svg width="65" height="65" viewBox="0 0 65 65" fill="none" xmlns="http://www.w3.org/2000/svg">
<g clip-path="url(#clip0_6_71)">
<path d="M65 14.6774C65 6.58381 58.4161 -6.10352e-05 50.3226 -6.10352e-05H14.6774C6.58387 -6.10352e-05 0 6.58381 0 14.6774C0 22.7709 6.58387 29.3548 14.6774 29.3548H17.5584C13.7024 33.2579 11.5323 38.4695 11.5323 44.0322C11.5323 55.5938 20.9384 64.9999 32.5 64.9999C44.0616 64.9999 53.4677 55.5938 53.4677 44.0322C53.4677 38.4695 51.2976 33.2579 47.4416 29.3548H50.3226C58.4161 29.3548 65 22.7709 65 14.6774ZM41.9355 60.3493C39.1562 61.9638 35.9387 62.9032 32.5 62.9032C29.0613 62.9032 25.8438 61.9638 23.0645 60.3493V57.6612C23.0645 52.4591 27.2969 48.2257 32.5 48.2257C37.7031 48.2257 41.9355 52.4591 41.9355 57.6612V60.3493ZM51.371 44.0322C51.371 50.0929 48.4869 55.4806 44.0323 58.9361V57.6612C44.0323 51.3028 38.8585 46.129 32.5 46.129C26.1415 46.129 20.9677 51.3028 20.9677 57.6612V58.9361C16.5131 55.4806 13.629 50.0929 13.629 44.0322C13.629 38.2923 16.1965 32.9654 20.6794 29.3548H26.5829C24.44 31.0857 23.0645 33.7307 23.0645 36.6935C23.0645 41.8956 27.2969 46.129 32.5 46.129C37.7031 46.129 41.9355 41.8956 41.9355 36.6935C41.9355 33.7307 40.56 31.0857 38.4171 29.3548H44.3206C48.8035 32.9654 51.371 38.2923 51.371 44.0322ZM32.5 29.3548C36.5457 29.3548 39.8387 32.6467 39.8387 36.6935C39.8387 40.7403 36.5457 44.0322 32.5 44.0322C28.4543 44.0322 25.1613 40.7403 25.1613 36.6935C25.1613 32.6467 28.4543 29.3548 32.5 29.3548ZM14.6774 27.258C7.74024 27.258 2.09677 21.6145 2.09677 14.6774C2.09677 7.74018 7.74024 2.09671 14.6774 2.09671H50.3226C57.2598 2.09671 62.9032 7.74018 62.9032 14.6774C62.9032 21.6145 57.2598 27.258 50.3226 27.258H14.6774Z" fill="white"/>
<path d="M51.3709 19.6415L57.2062 22.7101L56.0917 16.2111L60.8147 11.6087L54.2885 10.661L51.3709 4.74808L48.4532 10.661L41.9354 11.6077L35.4176 10.661L32.4999 4.74808L29.5822 10.661L23.0644 11.6077L16.5466 10.661L13.6289 4.74808L10.7113 10.661L4.18506 11.6087L8.90804 16.2111L7.79361 22.7101L13.6289 19.6415L19.4643 22.7101L18.3498 16.2111L23.0644 11.6171L27.779 16.2122L26.6646 22.7111L32.4999 19.6415L38.3352 22.7101L37.2208 16.2111L41.9354 11.6171L46.65 16.2122L45.5355 22.7111L51.3709 19.6415ZM16.0968 15.4794L16.6797 18.8772L13.6289 17.2732L10.5781 18.8772L11.161 15.4794L8.69207 13.0733L12.1035 12.5774L13.6289 9.48679L15.1543 12.5774L18.5658 13.0733L16.0968 15.4794ZM34.9688 15.4794L35.5517 18.8772L32.4999 17.2732L29.4491 18.8772L30.032 15.4794L27.563 13.0733L30.9745 12.5774L32.4999 9.48679L34.0253 12.5774L37.4367 13.0733L34.9688 15.4794ZM46.4351 13.0733L49.8455 12.5774L51.3709 9.48679L52.8963 12.5774L56.3077 13.0733L53.8398 15.4794L54.4227 18.8772L51.3709 17.2732L48.3201 18.8772L48.903 15.4794L46.4351 13.0733Z" fill="white"/>
</g>
<defs>
<clipPath id="clip0_6_71">
<rect width="65" height="65" fill="white"/>
</clipPath>
</defs>
</svg>
